{"title":"Legens of The Fall-720p MP4 AAC x264 BRRip 1994-CC","uid":8151887,"size":3343943627,"categoryP":"video","categoryS":"hd___movies","magnet":"?xt=urn:btih:f4bef8477e15084837ccf8f1d246311f586e2770&amp;dn=Legens+of+The+Fall-720p+MP4+AAC+x264+BRRip+1994-CC&amp;tr=udp%3A%2F%2Ftracker.openbittorrent.com%3A80&amp;tr=udp%3A%2F%2Fopen.demonii.com%3A1337&amp;tr=udp%3A%2F%2Ftracker.coppersurfer.tk%3A6969&amp;tr=udp%3A%2F%2Fexodus.desync.com%3A6969","seeders":0,"leechers":3,"uploader":"Caveman44","files":-1,"time":1361060125,"description":" &lt;a href=&quot;http://www.imdb.com/title/tt0110322/&quot; rel=&quot;nofollow&quot; target=&quot;_NEW&quot;&gt;http://www.imdb.com/title/tt0110322/&lt;/a&gt;\n\nSource: Legends.of.the.Fall.1994.Bluray.720p.2Audio.x264-CHD Thanks!\n\nSubs: Albanian, Arabic, Brazilian, Bulgarian, Chinese, Croatian, Danish, Dutch, English, Finnish, Hungarian, Indonesian, Norwegian, Portuguese, Romanian, Servian, Spanish, Turkish and Vietnamese.\n\nSample and Screens included.\n\nGeneral\nComplete name                            : Legens of The Fall-720p MP4 AAC x264 BRRip 1994-CC.mp4\nFormat                                   : MPEG-4\nFormat profile                           : Base Media\nCodec ID                                 : isom\nFile size                                : 3.08 GiB\nDuration                                 : 2h 12mn\nOverall bit rate mode                    : Variable\nOverall bit rate                         : 3 316 Kbps\nEncoded date                             : UTC 2013-02-05 19:12:36\n\nVideo\nID                                       : 1\nFormat                                   : AVC\nFormat/Info                              : Advanced Video Codec\nFormat profile                           : &lt;a class=&quot;__cf_email__&quot; href=&quot;/cdn-cgi/l/email-protection&quot; data-cfemail=&quot;541c3d333c1418607a65&quot;&gt;[email&amp;#160;protected]&lt;/a&gt;&lt;script cf-hash='f9e31' type=&quot;text/javascript&quot;&gt;\n/* &lt;![CDATA[ */!function(){try{var t=&quot;currentScript&quot;in document?document.currentScript:function(){for(var t=document.getElementsByTagName(&quot;script&quot;),e=t.length;e--;)if(t[e].getAttribute(&quot;cf-hash&quot;))return t[e]}();if(t&amp;&amp;t.previousSibling){var e,r,n,i,c=t.previousSibling,a=c.getAttribute(&quot;data-cfemail&quot;);if(a){for(e=&quot;&quot;,r=parseInt(a.substr(0,2),16),n=2;a.length-n;n+=2)i=parseInt(a.substr(n,2),16)^r,e+=String.fromCharCode(i);e=document.createTextNode(e),c.parentNode.replaceChild(e,c)}}}catch(u){}}();/* ]]&gt; */&lt;/script&gt;\nFormat settings, CABAC                   : Yes\nFormat settings, ReFrames                : 5 frames\nCodec ID                                 : avc1\nCodec ID/Info                            : Advanced Video Coding\nDuration                                 : 2h 12mn\nBit rate                                 : 2 990 Kbps\nMaximum bit rate                         : 18.5 Mbps\nWidth                                    : 1 280 pixels\nHeight                                   : 694 pixels\nDisplay aspect ratio                     : 1.85:1\nFrame rate mode                          : Variable\nFrame rate                               : 23.976 fps\nMinimum frame rate                       : 15.873 fps\nMaximum frame rate                       : 24.390 fps\nColor space                              : YUV\nChroma subsampling                       : 4:2:0\nBit depth                                : 8 bits\nScan type                                : Progressive\nBits/(Pixel*Frame)                       : 0.140\nStream size                              : 2.72 GiB (88%)\nWriting library                          : x264 core 112\n\nAudio\nID                                       : 2\nFormat                                   : AAC\nFormat/Info                              : Advanced Audio Codec\nFormat profile                           : LC\nCodec ID                                 : 40\nDuration                                 : 2h 12mn\nBit rate mode                            : Variable\nBit rate                                 : 384 Kbps\nMaximum bit rate                         : 585 Kbps\nChannel(s)                               : 6 channels\nChannel positions                        : Front: L C R, Side: L R, LFE\nSampling rate                            : 48.0 KHz\nCompression mode                         : Lossy\nDelay relative to video                  : 83ms\nStream size                              : 365 MiB (12%)\nLanguage                                 : English\n\nEnjoy...\n\nRequested by Danny66\n\nComing soon: Apocalypse Hitler, Cruel Intentions, Mortal Kombat and more...","torrent":{"xt":"urn:btih:f4bef8477e15084837ccf8f1d246311f586e2770","amp;dn":"Legens+of+The+Fall-720p+MP4+AAC+x264+BRRip+1994-CC","amp;tr":["udp%3A%2F%2Ftracker.openbittorrent.com%3A80","udp%3A%2F%2Fopen.demonii.com%3A1337","udp%3A%2F%2Ftracker.coppersurfer.tk%3A6969","udp%3A%2F%2Fexodus.desync.com%3A6969"],"infoHash":"f4bef8477e15084837ccf8f1d246311f586e2770","infoHashBuffer":{"type":"Buffer","data":[244,190,248,71,126,21,8,72,55,204,248,241,210,70,49,31,88,110,39,112]},"announce":[],"urlList":[]}}